<svg width="40" height="40" viewBox="0 0 40 40" fill="none" xmlns="http://www.w3.org/2000/svg">
<rect width="40" height="40" rx="20" fill="#0466FB"/>
<path d="M19.25 15.8475C18.3141 16.1034 17.75 16.8215 17.75 17.5C17.75 18.1785 18.3141 18.8966 19.25 19.1525V15.8475Z" fill="white"/>
<path d="M20.75 20.8475V24.1525C21.6859 23.8966 22.25 23.1785 22.25 22.5C22.25 21.8215 21.6859 21.1034 20.75 20.8475Z" fill="white"/>
<path fill-rule="evenodd" clip-rule="evenodd" d="M30 20C30 25.5228 25.5228 30 20 30C14.4772 30 10 25.5228 10 20C10 14.4772 14.4772 10 20 10C25.5228 10 30 14.4772 30 20ZM20 13.25C20.4142 13.25 20.75 13.5858 20.75 14V14.3167C22.3804 14.6087 23.75 15.8336 23.75 17.5C23.75 17.9142 23.4142 18.25 23 18.25C22.5858 18.25 22.25 17.9142 22.25 17.5C22.25 16.8215 21.6859 16.1034 20.75 15.8475V19.3167C22.3804 19.6087 23.75 20.8336 23.75 22.5C23.75 24.1664 22.3804 25.3913 20.75 25.6833V26C20.75 26.4142 20.4142 26.75 20 26.75C19.5858 26.75 19.25 26.4142 19.25 26V25.6833C17.6196 25.3913 16.25 24.1664 16.25 22.5C16.25 22.0858 16.5858 21.75 17 21.75C17.4142 21.75 17.75 22.0858 17.75 22.5C17.75 23.1785 18.3141 23.8966 19.25 24.1525V20.6833C17.6196 20.3913 16.25 19.1664 16.25 17.5C16.25 15.8336 17.6196 14.6087 19.25 14.3167V14C19.25 13.5858 19.5858 13.25 20 13.25Z" fill="white"/>
</svg>
