<svg width="41" height="40" viewBox="0 0 41 40" fill="none" xmlns="http://www.w3.org/2000/svg">
<rect x="0.5" width="40" height="40" rx="20" fill="#0466FB"/>
<path d="M24.6902 9.44238H16.3097C12.67 9.44238 10.5002 11.6121 10.5002 15.2519V23.6219C10.5002 27.2721 12.67 29.4419 16.3097 29.4419H24.6797C28.3202 29.4419 30.49 27.2721 30.49 23.6324V15.2519C30.4997 11.6121 28.33 9.44238 24.6902 9.44238ZM16.1297 25.5921C16.1297 26.0024 15.79 26.3421 15.3797 26.3421C14.9702 26.3421 14.6297 26.0024 14.6297 25.5921V23.5221C14.6297 23.1119 14.9702 22.7721 15.3797 22.7721C15.79 22.7721 16.1297 23.1119 16.1297 23.5221V25.5921ZM21.25 25.5921C21.25 26.0024 20.9102 26.3421 20.5 26.3421C20.0897 26.3421 19.75 26.0024 19.75 25.5921V21.4424C19.75 21.0321 20.0897 20.6924 20.5 20.6924C20.9102 20.6924 21.25 21.0321 21.25 21.4424V25.5921ZM26.3702 25.5921C26.3702 26.0024 26.0297 26.3421 25.6202 26.3421C25.21 26.3421 24.8702 26.0024 24.8702 25.5921V19.3724C24.8702 18.9621 25.21 18.6224 25.6202 18.6224C26.0297 18.6224 26.3702 18.9621 26.3702 19.3724V25.5921ZM26.3702 16.2119C26.3702 16.6221 26.0297 16.9619 25.6202 16.9619C25.21 16.9619 24.8702 16.6221 24.8702 16.2119V15.2421C22.3288 17.864 19.1033 19.721 15.5597 20.6024C15.4997 20.6219 15.4397 20.6219 15.3797 20.6219C15.2122 20.621 15.0497 20.5645 14.9176 20.4614C14.7856 20.3582 14.6915 20.2142 14.65 20.0519C14.6258 19.956 14.6209 19.8563 14.6355 19.7586C14.6501 19.6608 14.6839 19.5669 14.7351 19.4823C14.7862 19.3977 14.8536 19.3241 14.9333 19.2657C15.0131 19.2073 15.1036 19.1653 15.1997 19.1421C18.5702 18.3021 21.5702 16.5321 23.95 14.0324H22.6997C22.2902 14.0324 21.9497 13.6919 21.9497 13.2824C21.9497 12.8721 22.2902 12.5324 22.6997 12.5324H25.63C25.6697 12.5324 25.6997 12.5519 25.7402 12.5519C25.7897 12.5624 25.84 12.5624 25.8902 12.5819C25.9397 12.6021 25.9802 12.6321 26.0297 12.6621C26.0597 12.6824 26.0897 12.6921 26.1197 12.7124C26.1302 12.7221 26.1302 12.7319 26.14 12.7319C26.1797 12.7724 26.2097 12.8121 26.2397 12.8519C26.2697 12.8924 26.2997 12.9224 26.3102 12.9621C26.3297 13.0019 26.3297 13.0424 26.3402 13.0919C26.35 13.1421 26.3702 13.1924 26.3702 13.2524C26.3702 13.2621 26.38 13.2719 26.38 13.2824V16.2119H26.3702Z" fill="white"/>
</svg>
