<svg width="40" height="40" viewBox="0 0 40 40" fill="none" xmlns="http://www.w3.org/2000/svg">
<rect width="40" height="40" rx="20" fill="#0466FB"/>
<path d="M28.2696 24.265L28.9751 20.1852C29.1514 19.1662 28.3677 18.2342 27.3348 18.2342H22.1537C21.6402 18.2342 21.2491 17.7733 21.3323 17.266L21.9949 13.2214C22.1026 12.5643 22.0719 11.892 21.9047 11.2475C21.7662 10.7136 21.3543 10.2849 20.8126 10.1109L20.6676 10.0644C20.3402 9.95918 19.9829 9.98365 19.6742 10.1324C19.3344 10.2961 19.0859 10.5947 18.9938 10.9499L18.518 12.7837C18.3667 13.3672 18.1462 13.9305 17.8619 14.4626C17.4466 15.2402 16.8044 15.8625 16.1369 16.4377L14.6981 17.6775C14.2925 18.0271 14.0794 18.5506 14.1256 19.0844L14.9378 28.4771C15.0123 29.3386 15.7326 30 16.5963 30H21.245C24.7263 30 27.6973 27.5744 28.2696 24.265Z" fill="white"/>
<path fill-rule="evenodd" clip-rule="evenodd" d="M10.9677 17.4851C11.3689 17.4678 11.7126 17.7696 11.7472 18.1698L12.7188 29.4063C12.7812 30.1281 12.2127 30.7502 11.4867 30.7502C10.8029 30.7502 10.25 30.1954 10.25 29.5129V18.2344C10.25 17.8327 10.5664 17.5024 10.9677 17.4851Z" fill="white"/>
</svg>
