<svg width="41" height="40" viewBox="0 0 41 40" fill="none" xmlns="http://www.w3.org/2000/svg">
<rect x="0.5" width="40" height="40" rx="20" fill="#0466FB"/>
<path fill-rule="evenodd" clip-rule="evenodd" d="M11.3469 11.5699C10.5 12.4168 10.5 13.7799 10.5 16.5061V24.2169C10.5 26.9431 10.5 28.3062 11.3469 29.1531C12.1938 30 13.5569 30 16.2831 30H17.247C19.9732 30 21.3363 30 22.1832 29.1531C23.0301 28.3062 23.0301 26.9431 23.0301 24.2169V16.5061C23.0301 13.7799 23.0301 12.4168 22.1832 11.5699C21.3363 10.723 19.9732 10.723 17.247 10.723H16.2831C13.5569 10.723 12.1938 10.723 11.3469 11.5699ZM14.3554 12.8917C13.9562 12.8917 13.6325 13.2153 13.6325 13.6146C13.6325 14.0138 13.9562 14.3374 14.3554 14.3374H19.1747C19.5739 14.3374 19.8976 14.0138 19.8976 13.6146C19.8976 13.2153 19.5739 12.8917 19.1747 12.8917H14.3554ZM16.7651 27.1084C17.5635 27.1084 18.2108 26.4612 18.2108 25.6627C18.2108 24.8642 17.5635 24.2169 16.7651 24.2169C15.9666 24.2169 15.3193 24.8642 15.3193 25.6627C15.3193 26.4612 15.9666 27.1084 16.7651 27.1084Z" fill="white"/>
<path fill-rule="evenodd" clip-rule="evenodd" d="M29.7771 24.2165C29.7771 26.9427 29.7771 28.3058 28.9302 29.1527C28.479 29.6038 27.2482 29.8174 25.9478 29.9177C25.0573 29.9865 24.6121 30.0208 24.303 29.7347C23.994 29.4486 23.994 28.9803 23.994 28.0437V20.4017C23.994 19.4652 23.994 18.9969 24.302 18.7109C24.6101 18.4249 25.0561 18.4581 25.948 18.5244C27.2484 18.6211 28.4791 18.8292 28.9302 19.2803C29.7771 20.1272 29.7771 21.4903 29.7771 24.2165ZM27.6084 22.2892C27.6084 21.89 27.2848 21.5663 26.8855 21.5663C26.4863 21.5663 26.1627 21.89 26.1627 22.2892V26.1446C26.1627 26.5438 26.4863 26.8675 26.8855 26.8675C27.2848 26.8675 27.6084 26.5438 27.6084 26.1446V22.2892Z" fill="white"/>
<path fill-rule="evenodd" clip-rule="evenodd" d="M24.2452 10.6018C24.3121 10.2082 24.6855 9.9434 25.0791 10.0104C28.163 10.535 30.5 13.2493 30.5 16.5061C30.5 16.7735 30.3524 17.0191 30.1162 17.1445C29.88 17.27 29.5938 17.2548 29.3723 17.105L27.9265 16.1276C27.5957 15.904 27.5088 15.4546 27.7324 15.1239C27.956 14.7931 28.4054 14.7063 28.7362 14.9299L28.8322 14.9947C28.276 13.1544 26.7312 11.758 24.8366 11.4357C24.443 11.3687 24.1782 10.9954 24.2452 10.6018Z" fill="white"/>
</svg>
