<svg width="24" height="24" viewBox="0 0 24 24" fill="none" xmlns="http://www.w3.org/2000/svg">
<g clip-path="url(#clip0_271_905)">
<path d="M17 7.78125V16.2188C17 16.426 16.9177 16.6247 16.7712 16.7712C16.6247 16.9177 16.426 17 16.2188 17C16.0116 17 15.8129 16.9177 15.6663 16.7712C15.5198 16.6247 15.4375 16.426 15.4375 16.2188V9.66734L8.33369 16.7712C8.18717 16.9177 7.98846 17 7.78126 17C7.57405 17 7.37534 16.9177 7.22882 16.7712C7.08231 16.6247 7 16.426 7 16.2188C7 16.0116 7.08231 15.8128 7.22882 15.6663L14.3327 8.5625H7.78127C7.57407 8.5625 7.37535 8.48019 7.22884 8.33368C7.08233 8.18716 7.00002 7.98845 7.00002 7.78125C7.00002 7.57405 7.08233 7.37534 7.22884 7.22882C7.37535 7.08231 7.57407 7 7.78127 7L16.2188 7C16.426 7 16.6247 7.08231 16.7712 7.22882C16.9177 7.37534 17 7.57405 17 7.78125Z" fill="black"/>
</g>
<defs>
<clipPath id="clip0_271_905">
<rect width="10" height="10" fill="white" transform="translate(7 7)"/>
</clipPath>
</defs>
</svg>
