<svg width="100" height="100" viewBox="0 0 100 100" fill="none" xmlns="http://www.w3.org/2000/svg">
<rect width="100" height="100" fill="black"/>
<path d="M49.8996 82.5999V83.467H50.7667H72.1095H72.9766V82.5999V76.1697V75.3026H72.1095H67.2578V51.8359H71.4065V59.8343V60.7014H72.2736H78.7312H79.5983V59.8343V44.5386V43.6715H78.7312H44.2271H43.3599V44.5386V59.8343V60.7014H44.2271H50.7667H51.6338V59.8343V51.8359H55.6184V75.3026H50.7667H49.8996V76.1697V82.5999Z" fill="url(#paint0_radial_271_894)" stroke="white" stroke-width="1.73421"/>
<g filter="url(#filter0_d_271_894)">
<path d="M20.3606 61.9797C22.3117 61.9797 24.7879 60.5789 27.7895 57.7775C30.791 54.976 33.9177 51.2741 37.1694 46.6717L36.494 46.8218C31.6915 47.8223 27.5394 49.8734 24.0375 52.975C20.5357 56.0766 18.7848 58.5779 18.7848 60.4789C18.7848 61.4294 19.3101 61.9296 20.3606 61.9797ZM25.5383 67.0823C23.1871 67.0823 20.6858 66.2569 18.0344 64.606C15.3831 63.0052 14.0574 61.0542 14.0574 58.753C14.0574 54.901 16.5086 51.124 21.4112 47.4221C26.3137 43.6702 31.4164 41.7942 36.7191 41.7942C38.0698 41.7942 39.2704 41.8943 40.321 42.0944C43.2225 37.7421 45.5487 33.4899 47.2996 29.3378C49.0505 25.1356 49.926 22.034 49.926 20.0329C49.926 19.0324 49.6758 18.3821 49.1756 18.0819C48.6753 17.7818 47.975 17.6317 47.0745 17.6317C45.4236 17.6317 43.2475 18.4321 40.5461 20.0329C37.8447 21.6338 35.0933 23.9099 32.2918 26.8615C29.3903 29.913 27.9396 32.3643 27.9396 34.2153C27.9396 34.4154 28.0896 34.5905 28.3898 34.7406C28.74 34.8906 28.9151 35.0657 28.9151 35.2658C28.9151 35.9162 28.4648 36.2413 27.5644 36.2413C26.4138 36.2413 25.1381 35.566 23.7374 34.2153C22.3867 32.8646 21.7113 31.4388 21.7113 29.9381C21.8114 27.7369 23.3122 25.1606 26.2137 22.2091C28.715 19.6077 31.5915 17.4066 34.8431 15.6056C38.0948 13.8047 41.1464 12.9042 43.9979 12.9042C47.2996 12.9042 50.3262 14.1299 53.0776 16.5811C55.829 18.9824 57.2047 21.4337 57.2047 23.935L57.0547 25.1356C55.2537 32.1392 52.3522 39.0678 48.3501 45.9213C49.3006 46.8718 49.7759 47.6472 49.7759 48.2476C49.7759 48.6978 49.6008 48.9229 49.2506 48.9229C49.1005 48.9229 48.3752 48.6227 47.0745 48.0224C43.9229 53.1251 40.5711 57.3773 37.0193 60.779C33.4674 64.2308 30.0156 66.3069 26.6639 67.0073L25.5383 67.0823Z" fill="url(#paint1_linear_271_894)"/>
</g>
<defs>
<filter id="filter0_d_271_894" x="1.55089" y="7.48476" width="68.1603" height="79.191" filterUnits="userSpaceOnUse" color-interpolation-filters="sRGB">
<feFlood flood-opacity="0" result="BackgroundImageFix"/>
<feColorMatrix in="SourceAlpha" type="matrix" values="0 0 0 0 0 0 0 0 0 0 0 0 0 0 0 0 0 0 127 0" result="hardAlpha"/>
<feOffset dy="7.08701"/>
<feGaussianBlur stdDeviation="6.25324"/>
<feComposite in2="hardAlpha" operator="out"/>
<feColorMatrix type="matrix" values="0 0 0 0 0 0 0 0 0 0.209486 0 0 0 0 0.220833 0 0 0 0.5 0"/>
<feBlend mode="normal" in2="BackgroundImageFix" result="effect1_dropShadow_271_894"/>
<feBlend mode="normal" in="SourceGraphic" in2="effect1_dropShadow_271_894" result="shape"/>
</filter>
<radialGradient id="paint0_radial_271_894" cx="0" cy="0" r="1" gradientUnits="userSpaceOnUse" gradientTransform="translate(163.269 63.0392) scale(120.766 33.1681)">
<stop stop-color="#ECEFF5"/>
<stop offset="1" stop-color="#D1DFEC"/>
</radialGradient>
<linearGradient id="paint1_linear_271_894" x1="195.666" y1="40.2599" x2="-7.13975" y2="40.2599" gradientUnits="userSpaceOnUse">
<stop stop-color="#00FF96"/>
<stop offset="0.48" stop-color="#00F0FD"/>
<stop offset="1" stop-color="#0466FB"/>
</linearGradient>
</defs>
</svg>
